<?xml version="1.0" standalone="no"?>
<!DOCTYPE svg PUBLIC "-//W3C//DTD SVG 20010904//EN"
 "http://www.w3.org/TR/2001/REC-SVG-20010904/DTD/svg10.dtd">
<svg version="1.0" xmlns="http://www.w3.org/2000/svg"
 width="1280.000000pt" height="1280.000000pt" viewBox="0 0 1280.000000 1280.000000"
 preserveAspectRatio="xMidYMid meet">
<g transform="translate(0.000000,1280.000000) scale(0.100000,-0.100000)"
fill="#000000" stroke="none">
<path d="M2781 12670 c-362 -35 -693 -171 -1016 -419 -410 -313 -715 -788
-806 -1253 -29 -147 -32 -388 -5 -523 35 -182 91 -333 180 -481 61 -105 5613
-8667 5724 -8829 146 -214 298 -387 465 -531 564 -485 1242 -615 1977 -378
183 59 302 109 492 206 428 221 926 682 1165 1078 204 338 292 644 293 1009 0
323 -69 604 -231 940 -91 190 -61 141 -693 1111 -302 465 -1296 1993 -2208
3395 -1077 1655 -1673 2563 -1699 2587 -56 51 -123 72 -213 66 -126 -9 -222
-73 -277 -184 -41 -83 -45 -174 -9 -243 20 -40 1795 -2773 3700 -5696 394
-605 738 -1136 763 -1181 105 -181 187 -384 228 -561 30 -131 37 -372 14 -500
-40 -223 -129 -416 -288 -628 -132 -175 -431 -446 -653 -591 -175 -115 -434
-230 -635 -283 -170 -44 -249 -55 -404 -54 -278 1 -519 81 -760 251 -111 79
-314 285 -417 422 -125 167 -5781 8894 -5828 8992 -63 131 -83 221 -84 373 -1
187 32 315 131 507 142 275 417 550 688 686 476 240 1043 122 1348 -281 92
-121 4317 -6645 4373 -6752 163 -311 157 -544 -19 -719 -34 -35 -112 -96 -172
-136 -218 -144 -361 -193 -502 -173 -135 20 -268 102 -383 238 -30 36 -672
1020 -1427 2187 -755 1168 -1403 2168 -1440 2223 -94 138 -153 175 -281 175
-127 0 -244 -76 -297 -193 -24 -51 -27 -68 -23 -130 3 -40 10 -83 15 -97 14
-32 2796 -4338 2883 -4462 85 -122 243 -279 354 -352 408 -272 914 -235 1417
103 317 213 502 468 571 786 19 90 16 341 -5 449 -35 172 -115 379 -209 536
-52 88 -4187 6466 -4290 6618 -130 190 -323 370 -523 485 -277 160 -651 239
-984 207z"/>
</g>
</svg>
